<svg xmlns="http://www.w3.org/2000/svg">
  <symbol id="activity" viewBox="0 0 24 24" fill="none">
    <path d="M22 12H18L15 21L9 3L6 12H2" stroke="currentColor" stroke-opacity="0.7" stroke-width="2" stroke-linecap="round" stroke-linejoin="round"></path>
  </symbol>

  <symbol id="download-04" viewBox="0 0 24 24" fill="none">
    <path d="M8 12L12 16M12 16L16 12M12 16V6.8C12 5.40929 12 4.71394 11.4495 3.9354C11.0837 3.41812 10.0306 2.77968 9.40278 2.69462C8.45789 2.5666 8.09907 2.75378 7.38143 3.12814C4.18333 4.79643 2 8.14324 2 12C2 17.5228 6.47715 22 12 22C17.5228 22 22 17.5228 22 12C22 8.29859 19.989 5.06687 17 3.33782" stroke="currentColor" stroke-opacity="0.7" stroke-width="2" stroke-linecap="round" stroke-linejoin="round"></path>
  </symbol>

  <symbol id="link-broken-02" viewBox="0 0 24 24" fill="none">
    <path d="M8.5 15.5L15.5 8.49998M9 4V2M15 20V22M4 9H2M20 15H22M4.91421 4.91421L3.5 3.5M19.0858 19.0857L20.5 20.4999M12 17.6568L9.87871 19.7781C8.31662 21.3402 5.78396 21.3402 4.22186 19.7781C2.65976 18.216 2.65976 15.6833 4.22186 14.1212L6.34318 11.9999M17.6569 11.9999L19.7782 9.87859C21.3403 8.31649 21.3403 5.78383 19.7782 4.22174C18.2161 2.65964 15.6835 2.65964 14.1214 4.22174L12 6.34306" stroke="currentColor" stroke-opacity="0.7" stroke-width="2" stroke-linecap="round" stroke-linejoin="round"></path>
  </symbol>

  <symbol id="share-05" viewBox="0 0 24 24" fill="none">
    <path d="M21 6H17.8C16.1198 6 15.2798 6 14.638 6.32698C14.0735 6.6146 13.6146 7.07354 13.327 7.63803C13 8.27976 13 9.11984 13 10.8V12M21 6L18 3M21 6L18 9M10 3H7.8C6.11984 3 5.27976 3 4.63803 3.32698C4.07354 3.6146 3.6146 4.07354 3.32698 4.63803C3 5.27976 3 6.11984 3 7.8V16.2C3 17.8802 3 18.7202 3.32698 19.362C3.6146 19.9265 4.07354 20.3854 4.63803 20.673C5.27976 21 6.11984 21 7.8 21H16.2C17.8802 21 18.7202 21 19.362 20.673C19.9265 20.3854 20.3854 19.9265 20.673 19.362C21 18.7202 21 17.8802 21 16.2V14" stroke="currentColor" stroke-opacity="0.7" stroke-width="2" stroke-linecap="round" stroke-linejoin="round"></path>
  </symbol>

  <symbol id="activity-heart" viewBox="0 0 24 24" fill="none">
    <path d="M15.5 11.5H14.5L13 14.5L11 8.5L9.5 11.5H8.5M11.9932 5.13581C9.9938 2.7984 6.65975 2.16964 4.15469 4.31001C1.64964 6.45038 1.29697 10.029 3.2642 12.5604C4.75009 14.4724 8.97129 18.311 10.948 20.0749C11.3114 20.3991 11.4931 20.5613 11.7058 20.6251C11.8905 20.6805 12.0958 20.6805 12.2805 20.6251C12.4932 20.5613 12.6749 20.3991 13.0383 20.0749C15.015 18.311 19.2362 14.4724 20.7221 12.5604C22.6893 10.029 22.3797 6.42787 19.8316 4.31001C17.2835 2.19216 13.9925 2.7984 11.9932 5.13581Z" stroke="currentColor" stroke-opacity="0.7" stroke-width="2" stroke-linecap="round" stroke-linejoin="round"></path>
  </symbol>

  <symbol id="download-cloud-01" viewBox="0 0 24 24" fill="none">
    <path d="M4 16.2422C2.79401 15.435 2 14.0602 2 12.5C2 10.1564 3.79151 8.23129 6.07974 8.01937C6.54781 5.17213 9.02024 3 12 3C14.9798 3 17.4522 5.17213 17.9203 8.01937C20.2085 8.23129 22 10.1564 22 12.5C22 14.0602 21.206 15.435 20 16.2422M8 17L12 21M12 21L16 17M12 21V12" stroke="currentColor" stroke-opacity="0.7" stroke-width="2" stroke-linecap="round" stroke-linejoin="round"></path>
  </symbol>
</svg>