<svg xmlns="http://www.w3.org/2000/svg">
  <symbol id="activity" viewBox="0 0 24 24" fill="none">
    <path d="M22 12H18L15 21L9 3L6 12H2" stroke="currentColor" stroke-opacity="0.7" stroke-width="2" stroke-linecap="round" stroke-linejoin="round"></path>
  </symbol>

  <symbol id="download-04" viewBox="0 0 24 24" fill="none">
    <path d="M8 12L12 16M12 16L16 12M12 16V6.8C12 5.40929 12 4.71394 11.4495 3.9354C11.0837 3.41812 10.0306 2.77968 9.40278 2.69462C8.45789 2.5666 8.09907 2.75378 7.38143 3.12814C4.18333 4.79643 2 8.14324 2 12C2 17.5228 6.47715 22 12 22C17.5228 22 22 17.5228 22 12C22 8.29859 19.989 5.06687 17 3.33782" stroke="currentColor" stroke-opacity="0.7" stroke-width="2" stroke-linecap="round" stroke-linejoin="round"></path>
  </symbol>

  <symbol id="link-broken-02" viewBox="0 0 24 24" fill="none">
    <path d="M8.5 15.5L15.5 8.49998M9 4V2M15 20V22M4 9H2M20 15H22M4.91421 4.91421L3.5 3.5M19.0858 19.0857L20.5 20.4999M12 17.6568L9.87871 19.7781C8.31662 21.3402 5.78396 21.3402 4.22186 19.7781C2.65976 18.216 2.65976 15.6833 4.22186 14.1212L6.34318 11.9999M17.6569 11.9999L19.7782 9.87859C21.3403 8.31649 21.3403 5.78383 19.7782 4.22174C18.2161 2.65964 15.6835 2.65964 14.1214 4.22174L12 6.34306" stroke="currentColor" stroke-opacity="0.7" stroke-width="2" stroke-linecap="round" stroke-linejoin="round"></path>
  </symbol>
</svg>